<svg width="824" height="321" viewBox="0 0 824 321" fill="none" xmlns="http://www.w3.org/2000/svg">
<path fill-rule="evenodd" clip-rule="evenodd" d="M261.905 240.415V230.159V215.995V192.002V159.707C261.905 148.779 257.997 139.499 250.183 131.807C242.491 123.993 233.211 120.085 222.283 120.085C211.172 120.085 201.831 123.993 194.139 131.807C186.325 139.499 182.417 148.779 182.417 159.707C182.417 170.635 186.569 179.914 194.872 187.607C202.991 195.299 212.149 199.206 222.283 199.328V204.457V219.841C211.538 219.841 201.648 217.155 192.674 211.783C183.699 206.593 176.618 199.695 171.428 191.27C168.498 186.691 166.3 181.746 164.835 176.374C163.187 171.001 162.393 165.446 162.393 159.768C162.393 154.09 163.187 148.535 164.835 143.162C166.3 137.79 168.498 132.906 171.428 128.51C176.618 120.024 183.76 113.187 192.674 107.997C201.648 102.808 211.477 100.183 222.283 100.183C227.961 100.183 233.516 100.977 238.889 102.625C244.078 104.09 249.084 106.288 253.785 109.218C262.271 114.408 269.047 121.551 274.053 130.464C279.243 139.255 281.868 149.023 281.868 159.829V263.736C305.616 235.836 320.024 199.634 320.024 160.073C320.024 71.6727 248.351 0 159.951 0H157.57V160.256C157.57 166.117 156.776 171.673 155.128 176.862C153.663 182.234 151.465 187.24 148.535 191.758C143.345 200.244 136.203 207.021 127.289 212.027C118.315 217.216 108.486 219.841 97.68 219.841C86.9352 219.841 77.0451 217.216 68.0707 212.027C59.2795 206.96 52.1978 200.183 46.8254 191.758C44.0781 187.179 41.8803 182.234 40.2319 176.862C38.7667 171.673 38.0342 166.117 38.0342 160.256C38.0342 154.579 38.7667 149.023 40.2319 143.651C41.8803 138.461 44.0781 133.455 46.8254 128.755C52.0146 120.269 59.1574 113.431 68.0707 108.242C77.0451 102.869 86.8741 100.183 97.68 100.183V115.568V120.696C87.4236 121.001 78.2661 124.908 70.2686 132.417C62.0879 140.11 58.0586 149.389 58.0586 160.317C58.0586 171.245 61.9047 180.586 69.5359 188.461C77.1672 196.154 86.5689 199.939 97.68 199.939C108.608 199.939 117.949 196.093 125.824 188.461C133.638 180.647 137.546 171.245 137.546 160.317V128.022V104.029V89.8656V79.6092V1.58729C59.829 12.3931 0 79.1819 0 159.951C0 248.351 71.6727 320.024 160.073 320.024C198.779 320.024 234.249 306.288 261.966 283.394C261.905 268.444 261.905 246.603 261.905 240.424V240.415ZM465.262 153.236C465.812 185.348 446.215 217.827 401.77 217.827H351.893V90.8426H401.77C445.299 90.8426 464.713 121.856 465.262 153.236ZM375.641 194.811H401.77C430.647 194.811 442.063 173.748 441.514 153.053C440.965 133.272 429.365 113.492 401.77 113.492H375.641V194.811ZM530.769 219.841C559.829 219.841 577.411 198.962 577.411 173.199C577.411 147.619 559.096 126.557 530.586 126.557C502.075 126.557 484.31 147.619 484.31 173.199C484.31 198.962 501.709 219.841 530.769 219.841ZM530.769 199.512C514.652 199.512 506.471 186.813 506.471 173.199C506.471 159.768 514.774 146.703 530.769 146.703C545.604 146.703 555.067 159.768 555.067 173.199C555.067 186.813 546.886 199.512 530.769 199.512ZM676.679 206.41C666.361 216.545 655.433 220.574 642.185 220.574C616.239 220.574 594.628 204.945 594.628 173.199C594.628 141.453 616.239 125.824 642.185 125.824C654.884 125.824 664.713 129.426 674.481 139.072L660.5 153.785C655.25 149.084 648.718 146.703 642.552 146.703C627.656 146.703 616.789 157.57 616.789 173.199C616.789 190.232 628.388 199.328 642.185 199.328C649.267 199.328 656.349 197.314 661.783 191.88L676.679 206.41ZM808.058 194.078C816.239 182.234 820.024 167.216 819.841 152.686C819.291 120.024 799.328 87.729 754.761 87.729C710.134 87.729 689.255 120.94 689.438 154.151C689.621 187.179 709.584 220.024 754.761 220.024C769.047 220.024 781.196 216.728 790.842 210.562L806.288 225.824L823.137 208.974L808.058 194.078ZM754.7 197.863C727.106 197.863 713.308 175.58 712.942 154.701C712.576 133.272 724.725 109.341 754.7 109.341C784.676 109.341 795.36 131.441 796.275 151.954C797.13 173.748 783.394 197.863 754.7 197.863Z" fill="white"/>
</svg>
